<svg width="37" height="36" viewBox="0 0 37 36" fill="none" xmlns="http://www.w3.org/2000/svg">
<g clip-path="url(#clip0_705_5697)">
<path d="M27.5 19.5H20V27C20 27.825 19.325 28.5 18.5 28.5C17.675 28.5 17 27.825 17 27V19.5H9.5C8.675 19.5 8 18.825 8 18C8 17.175 8.675 16.5 9.5 16.5H17V9C17 8.175 17.675 7.5 18.5 7.5C19.325 7.5 20 8.175 20 9V16.5H27.5C28.325 16.5 29 17.175 29 18C29 18.825 28.325 19.5 27.5 19.5Z" fill="white"/>
</g>
<defs>
<clipPath id="clip0_705_5697">
<rect width="36" height="36" fill="white" transform="translate(0.5)"/>
</clipPath>
</defs>
</svg>
