<svg width="25" height="24" viewBox="0 0 25 24" fill="none" xmlns="http://www.w3.org/2000/svg">
<g clip-path="url(#clip0_755_5041)">
<path d="M18.5 13H13.5V18C13.5 18.55 13.05 19 12.5 19C11.95 19 11.5 18.55 11.5 18V13H6.5C5.95 13 5.5 12.55 5.5 12C5.5 11.45 5.95 11 6.5 11H11.5V6C11.5 5.45 11.95 5 12.5 5C13.05 5 13.5 5.45 13.5 6V11H18.5C19.05 11 19.5 11.45 19.5 12C19.5 12.55 19.05 13 18.5 13Z" fill="#161616"/>
</g>
<defs>
<clipPath id="clip0_755_5041">
<rect width="24" height="24" fill="white" transform="translate(0.5)"/>
</clipPath>
</defs>
</svg>
