<svg width="24" height="24" viewBox="0 0 24 24" fill="none" xmlns="http://www.w3.org/2000/svg">
<g clip-path="url(#clip0_683_19620)">
<path d="M2 22L16 17L7 8L2 22Z" fill="white"/>
<path d="M14.53 12.5296L20.12 6.93965C20.61 6.44965 21.4 6.44965 21.89 6.93965L22.48 7.52965L23.54 6.46965L22.95 5.87965C21.88 4.80965 20.13 4.80965 19.06 5.87965L13.47 11.4696L14.53 12.5296Z" fill="white"/>
<path d="M10.06 6.87996L9.46997 7.46996L10.53 8.52996L11.12 7.93996C12.19 6.86996 12.19 5.11996 11.12 4.04996L10.53 3.45996L9.46997 4.52996L10.06 5.11996C10.54 5.59996 10.54 6.39996 10.06 6.87996Z" fill="white"/>
<path d="M17.06 11.8796L15.47 13.4696L16.53 14.5296L18.12 12.9396C18.61 12.4496 19.4 12.4496 19.89 12.9396L21.5 14.5496L22.56 13.4896L20.95 11.8796C19.87 10.8096 18.13 10.8096 17.06 11.8796Z" fill="white"/>
<path d="M15.06 5.87996L11.47 9.46996L12.53 10.53L16.12 6.93996C17.19 5.86996 17.19 4.11996 16.12 3.04996L14.53 1.45996L13.47 2.51996L15.06 4.10996C15.54 4.59996 15.54 5.39996 15.06 5.87996Z" fill="white"/>
</g>
<defs>
<clipPath id="clip0_683_19620">
<rect width="24" height="24" fill="white"/>
</clipPath>
</defs>
</svg>
