<svg width="55" height="55" viewBox="0 0 55 55" fill="none" xmlns="http://www.w3.org/2000/svg">
<circle cx="27.5" cy="27.5" r="27.5" fill="#525252"/>
<path d="M15.9821 15.4673C16.2769 15.4673 16.5154 15.2285 16.5154 14.934V13.8673C16.5154 13.5728 16.2769 13.334 15.9821 13.334C15.6873 13.334 15.4487 13.5728 15.4487 13.8673V14.934C15.4487 15.2285 15.6873 15.4673 15.9821 15.4673Z" fill="white"/>
<path d="M15.9821 18.6675C16.2769 18.6675 16.5154 18.4287 16.5154 18.1342V17.0675C16.5154 16.773 16.2769 16.5342 15.9821 16.5342C15.6873 16.5342 15.4487 16.773 15.4487 17.0675V18.1342C15.4487 18.4287 15.6873 18.6675 15.9821 18.6675Z" fill="white"/>
<path d="M14.9154 15.4678H13.8488C13.554 15.4678 13.3154 15.7066 13.3154 16.0011C13.3154 16.2956 13.554 16.5344 13.8488 16.5344H14.9154C15.2102 16.5344 15.4488 16.2956 15.4488 16.0011C15.4488 15.7066 15.2102 15.4678 14.9154 15.4678Z" fill="white"/>
<path d="M17.049 16.5344H18.1156C18.4104 16.5344 18.649 16.2956 18.649 16.0011C18.649 15.7066 18.4104 15.4678 18.1156 15.4678H17.049C16.7542 15.4678 16.5156 15.7066 16.5156 16.0011C16.5156 16.2956 16.7542 16.5344 17.049 16.5344Z" fill="white"/>
<path d="M12.6668 23.251C12.3519 23.251 12.0967 23.5063 12.0967 23.8211C12.0967 24.1359 12.352 24.3914 12.6668 24.3914C12.9816 24.3914 13.237 24.136 13.237 23.8211C13.237 23.5062 12.9817 23.251 12.6668 23.251Z" fill="white"/>
<path d="M39.3333 37.1182C39.0184 37.1182 38.7632 37.3735 38.7632 37.6883C38.7632 38.0031 39.0185 38.2586 39.3333 38.2586C39.6481 38.2586 39.9034 38.0032 39.9034 37.6883C39.9034 37.3734 39.6482 37.1182 39.3333 37.1182Z" fill="white"/>
<path d="M39.6838 25.8748C39.5958 24.0158 39.0535 22.1696 38.116 20.5358C37.9696 20.28 37.6436 20.1918 37.3879 20.3386C37.1327 20.4852 37.0442 20.811 37.191 21.0664C38.0446 22.5542 38.5379 24.2344 38.618 25.925C38.6566 26.7438 38.606 27.563 38.467 28.3599C38.1331 30.2792 37.2904 32.0682 36.0306 33.5334C35.3931 34.2743 34.6488 35.593 34.6488 36.8706V42.6678H25.451L24.6568 39.8872L29.9447 38.9259C30.1598 38.8868 30.3296 38.7202 30.3723 38.5056L30.9051 35.839C30.963 35.5502 30.7754 35.2692 30.4868 35.2116C30.1951 35.154 29.9171 35.3414 29.8592 35.6302L29.3972 37.9414L23.9268 38.9359L19.7234 39.0434C19.5703 39.0434 19.4422 38.9179 19.4255 38.7592L19.145 35.5772L21.5135 34.6299C21.751 34.5348 21.8875 34.2848 21.8395 34.0338C21.7911 33.7827 21.5712 33.6012 21.3155 33.6012H18.9707L18.8754 32.5203C18.856 32.3034 18.7071 32.12 18.4988 32.0567L16.7926 31.5406C16.6816 31.5151 16.6223 31.4346 16.5972 31.3887C16.5566 31.3158 16.5436 31.2308 16.5598 31.1491L19.5691 26.4194C19.6738 26.2551 19.68 26.047 19.5863 25.8762C19.4926 25.7059 19.3134 25.5999 19.1191 25.5999H19.1187C19.1182 25.5999 19.1182 25.5999 19.1176 25.5999C18.9911 25.5999 18.8703 25.5455 18.7859 25.4502C18.7386 25.3968 18.6619 25.283 18.6818 25.1215C18.862 23.6512 19.2974 22.2054 19.9072 21.0504C20.0452 20.79 19.9452 20.4674 19.6848 20.3296C19.4244 20.1916 19.1015 20.2916 18.9646 20.552C18.2848 21.8375 17.8214 23.3728 17.6234 24.9919C17.5718 25.413 17.7046 25.838 17.9879 26.1578C18.08 26.2619 18.1858 26.352 18.301 26.426L15.6187 30.6418C15.5963 30.677 15.578 30.7144 15.5646 30.754C15.4334 31.1347 15.4692 31.5546 15.6646 31.9059C15.8542 32.248 16.1782 32.4936 16.5187 32.5707L17.8447 32.9728L18.3635 38.8611C18.4375 39.5731 19.0219 40.1098 19.737 40.1098L23.5828 40.0116L24.5359 43.3478C24.6015 43.5767 24.8108 43.7344 25.049 43.7344H35.1823C35.4771 43.7344 35.7156 43.4956 35.7156 43.2011V36.8706C35.7156 35.9531 36.2979 34.858 36.8391 34.2287C38.2251 32.618 39.1511 30.6516 39.5183 28.5427C39.6702 27.6694 39.7259 26.7718 39.6838 25.8748Z" fill="white"/>
<path d="M19.7252 26.8484C19.8621 27.5806 21.0825 27.7348 21.3169 27.7348C21.7289 27.7348 22.9252 27.4722 22.9252 26.6681C22.9252 26.3736 22.6867 26.1348 22.3919 26.1348C22.1555 26.1348 21.9544 26.2889 21.8845 26.5022C21.7648 26.5768 21.4815 26.6681 21.3168 26.6681C21.1501 26.6681 20.846 26.579 20.7256 26.5108C20.622 26.3037 20.3933 26.1818 20.1507 26.2258C19.8616 26.2801 19.6704 26.5588 19.7252 26.8484Z" fill="white"/>
<path d="M24.4225 22.0514C24.7022 22.1069 24.9834 22.1347 25.2646 22.1347C25.6069 22.1347 25.9496 22.0895 26.2898 22.0074C26.4321 22.0782 26.5717 22.1553 26.7198 22.2115C27.1177 22.3626 27.5948 22.4769 28.0286 22.4769C28.2181 22.4769 28.3973 22.4514 28.5602 22.4013C28.7208 22.4499 28.9026 22.4774 29.1052 22.4774C29.5928 22.4774 30.1812 22.3274 30.7697 22.0435C31.0509 22.0994 31.3333 22.1345 31.6156 22.1345C31.8968 22.1345 32.1781 22.1069 32.4572 22.0514C34.591 21.6271 36.0536 19.0605 36.115 18.9517C36.2473 18.7155 36.1822 18.4173 35.9629 18.2585C35.9166 18.2254 34.8917 17.497 33.5977 17.1215C33.5946 16.0971 33.4168 15.3001 33.402 15.2363C33.3369 14.9541 33.0577 14.777 32.7733 14.8342C32.7276 14.8438 31.7648 15.0491 30.7058 15.5827C30.1221 13.8439 29.0289 12.5306 28.9661 12.4563C28.8672 12.3394 28.7224 12.2706 28.5692 12.2675C28.4228 12.2577 28.2692 12.3274 28.1656 12.4405C28.0982 12.5138 26.942 13.797 26.303 15.5082C25.2765 15.0025 24.3634 14.8039 24.3193 14.7945C24.0338 14.7349 23.7537 14.9139 23.689 15.1978C23.6744 15.2614 23.5008 16.0479 23.4974 17.0641C22.1038 17.4151 20.9669 18.2222 20.9166 18.2585C20.6973 18.4173 20.6322 18.7155 20.7645 18.9517C20.8261 19.0606 22.2886 21.6273 24.4225 22.0514ZM34.9162 18.8546C34.3938 19.6122 33.3772 20.7809 32.249 21.0051C32.2338 21.0082 32.2185 21.0089 32.2033 21.0117C32.4146 20.7963 32.6168 20.5655 32.7928 20.3022C33.2152 19.6701 33.4293 18.931 33.5273 18.2153C34.0893 18.4041 34.5868 18.6606 34.9162 18.8546ZM32.4548 16.0254C32.5684 16.8877 32.663 18.5767 31.9064 19.7095C31.3737 20.5061 30.682 20.9578 30.0874 21.1933C30.6502 20.3153 31.0678 19.0279 31.0678 17.6279C31.0678 17.2958 31.0364 16.9675 30.981 16.6471C31.5273 16.3497 32.0709 16.1454 32.4548 16.0254ZM28.5422 13.6691C29.0849 14.4558 30.001 16.0219 30.001 17.6279C30.001 19.9113 28.8354 21.2209 28.5792 21.2935C28.2573 21.2261 26.9521 19.8831 26.9521 17.6279C26.9522 16.0257 27.9569 14.4507 28.5422 13.6691ZM24.6381 15.9871C24.9948 16.0997 25.4901 16.287 25.9998 16.5542C25.9292 16.9042 25.8856 17.2633 25.8856 17.6279C25.8856 19.0531 26.339 20.2881 26.9206 21.1403C26.3485 20.8915 25.704 20.4461 25.1996 19.6907C24.437 18.5499 24.5266 16.8535 24.6381 15.9871ZM23.5674 18.1517C23.6652 18.8814 23.8813 19.6377 24.3132 20.2835C24.5001 20.5634 24.7226 20.8149 24.9597 21.0515C24.8498 21.0411 24.7401 21.0269 24.6309 21.0051C23.4288 20.7663 22.4268 19.5202 21.9658 18.8525C22.3354 18.6347 22.9178 18.3417 23.5674 18.1517Z" fill="white"/>
</svg>
