<svg width="56" height="56" viewBox="0 0 56 56" fill="none" xmlns="http://www.w3.org/2000/svg">
<circle cx="28" cy="28" r="27.5" fill="#525252"/>
<g clip-path="url(#clip0_705_5692)">
<path d="M39.5222 10.5H31.6172C31.3259 10.5 31.0899 10.7361 31.0899 11.0273C31.0899 11.3186 31.3259 11.5547 31.6172 11.5547H39.5222C39.6593 11.5547 39.7709 11.6663 39.7709 11.8034V15.0666C39.7709 23.9499 38.9923 32.8906 37.4566 41.6401L36.9226 44.6824C36.845 45.1244 36.4629 45.4453 36.014 45.4453H20.9859C20.537 45.4453 20.1549 45.1244 20.0774 44.6824L19.5434 41.6401C18.0076 32.8903 17.229 23.9498 17.229 15.0666V11.8034C17.229 11.6663 17.3406 11.5547 17.4777 11.5547H29.5078C29.7991 11.5547 30.0352 11.3186 30.0352 11.0273C30.0352 10.7361 29.7991 10.5 29.5078 10.5H17.4777C16.759 10.5 16.1743 11.0847 16.1743 11.8034V15.0666C16.1743 24.0107 16.9583 33.0127 18.5045 41.8223L19.0385 44.8647C19.2049 45.8123 20.0238 46.5 20.9859 46.5H36.014C36.9761 46.5 37.7951 45.8122 37.9613 44.8647L38.4953 41.8223C40.0415 33.0128 40.8256 24.0109 40.8256 15.0666V11.8034C40.8256 11.0847 40.241 10.5 39.5222 10.5V10.5Z" fill="white"/>
<path d="M21.813 22.0869C21.813 21.7957 21.5768 21.5596 21.2856 21.5596H20.2427C19.9585 21.5596 19.6833 21.6777 19.4874 21.8836C19.2918 22.0892 19.1878 22.3696 19.202 22.6528C19.5158 28.9101 20.2211 35.1947 21.2984 41.3321L21.5777 42.9232C21.653 43.3521 22.0237 43.6634 22.4591 43.6634H34.5404C34.9759 43.6634 35.3467 43.352 35.4219 42.9231L35.7012 41.332C36.7784 35.1941 37.4838 28.9095 37.7975 22.6527C37.8117 22.3695 37.7077 22.0892 37.512 21.8836C37.3162 21.6777 37.041 21.5596 36.7568 21.5596H23.395C23.1038 21.5596 22.8676 21.7957 22.8676 22.0869C22.8676 22.3781 23.1038 22.6143 23.395 22.6143H36.7434C36.4313 28.8229 35.7312 35.0594 34.6623 41.1498L34.4061 42.6087H22.5932L22.3371 41.1498C21.2682 35.0599 20.568 28.8234 20.256 22.6143H21.2856C21.5768 22.6143 21.813 22.3781 21.813 22.0869Z" fill="white"/>
</g>
<defs>
<clipPath id="clip0_705_5692">
<rect width="36" height="36" fill="white" transform="translate(10.5 10.5)"/>
</clipPath>
</defs>
</svg>
