<svg width="142" height="25" viewBox="0 0 142 25" fill="none" xmlns="http://www.w3.org/2000/svg">
<path fill-rule="evenodd" clip-rule="evenodd" d="M16.6406 18.9844V24.75H0V0H6.6875V18.9844H16.6406ZM5.6875 19.9844V1H1V23.75H15.6406V19.9844H5.6875ZM34.3281 24.75H27.6406V0H34.3281V24.75ZM65.3438 5.79688H58.375V24.75H51.6875V5.79688H44.8125V0H65.3438V5.79688ZM52.6875 4.79688V23.75H57.375V4.79688H64.3438V1H45.8125V4.79688H52.6875ZM91.7188 15.4531H82.7188V24.75H76.0312V0H92.8438V5.79688H82.7188V9.67188H91.7188V15.4531ZM81.7188 10.6719V4.79688H91.8438V1H77.0312V23.75H81.7188V14.4531H90.7188V10.6719H81.7188ZM110.547 24.75H103.859V0H110.547V24.75ZM141.562 5.79688H134.594V24.75H127.906V5.79688H121.031V0H141.562V5.79688ZM128.906 4.79688V23.75H133.594V4.79688H140.562V1H122.031V4.79688H128.906ZM33.3281 23.75V1H28.6406V23.75H33.3281ZM109.547 23.75V1H104.859V23.75H109.547Z" fill="white"/>
</svg>
