<svg width="18" height="21" viewBox="0 0 18 21" fill="none" xmlns="http://www.w3.org/2000/svg">
<path d="M11.0001 0H7.0001C6.4501 0 6.0001 0.45 6.0001 1C6.0001 1.55 6.4501 2 7.0001 2H11.0001C11.5501 2 12.0001 1.55 12.0001 1C12.0001 0.45 11.5501 0 11.0001 0ZM9.0001 13C9.5501 13 10.0001 12.55 10.0001 12V8C10.0001 7.45 9.5501 7 9.0001 7C8.4501 7 8.0001 7.45 8.0001 8V12C8.0001 12.55 8.4501 13 9.0001 13ZM16.0301 6.39L16.7801 5.64C17.1601 5.26 17.1701 4.63 16.7801 4.24L16.7701 4.23C16.3801 3.84 15.7601 3.85 15.3701 4.23L14.6201 4.98C13.0701 3.74 11.1201 3 9.0001 3C4.2001 3 0.1201 6.96 0.000100175 11.76C-0.1299 16.84 3.9401 21 9.0001 21C13.9801 21 18.0001 16.97 18.0001 12C18.0001 9.88 17.2601 7.93 16.0301 6.39ZM9.0001 19C5.1301 19 2.0001 15.87 2.0001 12C2.0001 8.13 5.1301 5 9.0001 5C12.8701 5 16.0001 8.13 16.0001 12C16.0001 15.87 12.8701 19 9.0001 19Z" fill="white"/>
</svg>
