<svg width="40" height="40" viewBox="0 0 40 40" fill="none" xmlns="http://www.w3.org/2000/svg">
<g clip-path="url(#clip0_730_5176)">
<path d="M34.5679 27.4292L27.1548 9.63775C26.7967 8.7783 25.5791 8.7783 25.221 9.63775L17.8079 27.4292C15.3163 33.4091 19.7098 39.9993 26.1879 39.9993C32.6661 39.9993 37.0596 33.4091 34.5679 27.4292Z" fill="#9BE8FD"/>
<path d="M22.6897 27.4292L28.6288 13.1753L27.1548 9.63775C26.7967 8.7783 25.5791 8.7783 25.221 9.63775L17.8079 27.4292C15.3163 33.4091 19.7097 39.9993 26.188 39.9993C27.0416 39.9993 27.8586 39.8838 28.6288 39.6715C23.5537 38.2721 20.5264 32.6211 22.6897 27.4292Z" fill="#62DDFC"/>
<path d="M15.0854 19.9303L10.688 9.37652C10.4756 8.86668 9.75331 8.86668 9.54089 9.37652L5.14347 19.9303C3.6655 23.4775 6.27167 27.3868 10.1144 27.3868C13.9571 27.3868 16.5635 23.4775 15.0854 19.9303Z" fill="#9BE8FD"/>
<path d="M8.49229 19.8008L11.7619 11.9538L10.6881 9.37652C10.4756 8.86668 9.75338 8.86668 9.54088 9.37652L5.14347 19.9303C3.6655 23.4775 6.27167 27.3868 10.1145 27.3868C10.7816 27.3868 11.4114 27.2688 11.989 27.0555C8.9944 26.2131 7.21284 22.8716 8.49229 19.8008Z" fill="#62DDFC"/>
<path d="M20.4984 6.29746L17.9662 0.220195C17.8439 -0.0733984 17.428 -0.0733984 17.3057 0.220195L14.7735 6.29738C13.9224 8.33996 15.4231 10.5911 17.6359 10.5911C19.8487 10.5911 21.3495 8.34004 20.4984 6.29746Z" fill="#9BE8FD"/>
<path d="M17.9929 6.29746L19.2457 3.29074L17.9662 0.220195C17.8439 -0.0733984 17.428 -0.0733984 17.3057 0.220195L14.7735 6.29738C13.9224 8.33996 15.4231 10.5911 17.6359 10.5911C18.236 10.5911 18.783 10.4245 19.2456 10.1425C18.0023 9.38449 17.3726 7.78613 17.9929 6.29746Z" fill="#62DDFC"/>
<path d="M29.2438 36.3655C29.0512 36.0934 29.1156 35.7167 29.3878 35.5241C31.3734 34.1188 32.4642 31.3836 31.3526 28.7159C31.2244 28.4081 31.3699 28.0547 31.6776 27.9265C31.9853 27.7982 32.3387 27.9438 32.467 28.2515C33.8145 31.4855 32.496 34.8031 30.0853 36.5094C29.8131 36.702 29.4364 36.6376 29.2438 36.3655Z" fill="#C9F0FE"/>
<path d="M11.0831 24.7649C10.8906 24.4928 10.955 24.116 11.2271 23.9235C12.1132 23.2963 12.6023 22.0744 12.1053 20.8818C11.9771 20.5741 12.1227 20.2207 12.4303 20.0925C12.738 19.9643 13.0914 20.1097 13.2197 20.4175C13.9409 22.1486 13.2619 23.9623 11.9245 24.9088C11.6526 25.1013 11.2758 25.037 11.0831 24.7649Z" fill="#C9F0FE"/>
</g>
<defs>
<clipPath id="clip0_730_5176">
<rect width="40" height="40" fill="white"/>
</clipPath>
</defs>
</svg>
