<svg width="16" height="16" viewBox="0 0 16 16" fill="none" xmlns="http://www.w3.org/2000/svg">
<path d="M6.3833 12.877C7.76123 12.877 9.04785 12.4287 10.0938 11.6816L14.0283 15.6162C14.2109 15.7988 14.4517 15.8901 14.7007 15.8901C15.2402 15.8901 15.6304 15.4751 15.6304 14.9438C15.6304 14.6948 15.5474 14.4624 15.3647 14.2798L11.4551 10.3618C12.2769 9.28271 12.7666 7.94629 12.7666 6.49365C12.7666 2.98242 9.89453 0.110352 6.3833 0.110352C2.86377 0.110352 0 2.98242 0 6.49365C0 10.0049 2.86377 12.877 6.3833 12.877ZM6.3833 11.499C3.63574 11.499 1.37793 9.23291 1.37793 6.49365C1.37793 3.75439 3.63574 1.48828 6.3833 1.48828C9.12256 1.48828 11.3887 3.75439 11.3887 6.49365C11.3887 9.23291 9.12256 11.499 6.3833 11.499Z" fill="#F4F4F4"/>
</svg>
