<svg width="11" height="17" viewBox="0 0 11 17" fill="none" xmlns="http://www.w3.org/2000/svg">
<path d="M0 8.04822C0 9.05264 0.204985 9.94433 0.614955 10.7233C1.03005 11.5022 1.60657 12.1274 2.34451 12.5989C3.08246 13.0652 3.94083 13.3394 4.91964 13.4214V15.2124H2.06778C1.9038 15.2124 1.76543 15.2688 1.65269 15.3815C1.53995 15.4943 1.48358 15.6327 1.48358 15.7966C1.48358 15.9555 1.53995 16.0913 1.65269 16.2041C1.76543 16.3168 1.9038 16.3732 2.06778 16.3732H8.93222C9.0962 16.3732 9.23457 16.3168 9.34731 16.2041C9.46005 16.0913 9.51642 15.9555 9.51642 15.7966C9.51642 15.6327 9.46005 15.4943 9.34731 15.3815C9.23457 15.2688 9.0962 15.2124 8.93222 15.2124H6.08036V13.4214C7.05917 13.3394 7.91754 13.0652 8.65549 12.5989C9.39343 12.1274 9.96739 11.5022 10.3774 10.7233C10.7925 9.94433 11 9.05264 11 8.04822V6.48777C11 6.32891 10.9436 6.1931 10.8309 6.08036C10.7181 5.96762 10.5823 5.91125 10.4235 5.91125C10.2595 5.91125 10.1211 5.96762 10.0084 6.08036C9.89564 6.1931 9.83927 6.32891 9.83927 6.48777V8.0021C9.83927 8.87328 9.65991 9.63685 9.30119 10.2928C8.94246 10.9488 8.43769 11.4587 7.78686 11.8225C7.14116 12.1812 6.38015 12.3606 5.50384 12.3606C4.62753 12.3606 3.86396 12.1812 3.21314 11.8225C2.56231 11.4587 2.05754 10.9488 1.69881 10.2928C1.34009 9.63685 1.16073 8.87328 1.16073 8.0021V6.48777C1.16073 6.32891 1.10436 6.1931 0.991614 6.08036C0.878873 5.96762 0.740508 5.91125 0.57652 5.91125C0.417657 5.91125 0.281854 5.96762 0.169113 6.08036C0.0563708 6.1931 0 6.32891 0 6.48777V8.04822ZM5.50384 10.7079C6.01118 10.7079 6.45702 10.59 6.84137 10.3543C7.23084 10.1186 7.53063 9.79315 7.74074 9.37806C7.95598 8.95784 8.06359 8.47356 8.06359 7.92523V2.78267C8.06359 2.23433 7.95598 1.75262 7.74074 1.33753C7.53063 0.917307 7.23084 0.589331 6.84137 0.353599C6.45702 0.117866 6.01118 0 5.50384 0C4.99138 0 4.54298 0.117866 4.15863 0.353599C3.77428 0.589331 3.47449 0.917307 3.25926 1.33753C3.04403 1.75262 2.93641 2.23433 2.93641 2.78267V7.92523C2.93641 8.47356 3.04403 8.95784 3.25926 9.37806C3.47449 9.79315 3.77428 10.1186 4.15863 10.3543C4.54298 10.59 4.99138 10.7079 5.50384 10.7079Z" fill="#F4F4F4"/>
</svg>
