<svg width="56" height="56" viewBox="0 0 56 56" fill="none" xmlns="http://www.w3.org/2000/svg">
<circle cx="28" cy="28" r="27.5" fill="#525252"/>
<g clip-path="url(#clip0_705_5688)">
<path d="M26.7865 26.1191H11.0668C10.7538 26.1191 10.5 26.3729 10.5 26.6859C10.5 26.999 10.7538 27.2527 11.0668 27.2527H26.7865C27.0995 27.2527 27.3532 26.999 27.3532 26.6859C27.3532 26.3729 27.0995 26.1191 26.7865 26.1191Z" fill="white"/>
<path d="M20.7405 23.7005L15.9037 23.7002C15.5907 23.7002 15.3369 23.9539 15.3369 24.267C15.3369 24.5801 15.5906 24.8337 15.9037 24.8338L20.7405 24.8341C21.0535 24.8341 21.3073 24.5804 21.3073 24.2673C21.3073 23.9542 21.0536 23.7005 20.7405 23.7005Z" fill="white"/>
<path d="M20.7404 21.2822H20.7404L18.9266 21.2825C18.6135 21.2825 18.3598 21.5363 18.3599 21.8494C18.3599 22.1625 18.6136 22.4162 18.9267 22.4162L20.7405 22.4159C21.0536 22.4159 21.3073 22.162 21.3072 21.849C21.3073 21.536 21.0535 21.2822 20.7404 21.2822Z" fill="white"/>
<path d="M25.5773 28.5371H15.9037C15.5907 28.5371 15.3369 28.7909 15.3369 29.1039C15.3369 29.4169 15.5907 29.6707 15.9037 29.6707H25.5773C25.8904 29.6707 26.1441 29.4169 26.1441 29.1039C26.1441 28.7909 25.8904 28.5371 25.5773 28.5371Z" fill="white"/>
<path d="M13.485 23.7002H12.2758C11.9627 23.7002 11.709 23.954 11.709 24.267C11.709 24.58 11.9627 24.8338 12.2758 24.8338H13.485C13.798 24.8338 14.0518 24.58 14.0518 24.267C14.0518 23.954 13.798 23.7002 13.485 23.7002Z" fill="white"/>
<path d="M37.4062 25.0264L38.8684 25.6845C39.3362 25.8948 39.8321 26.0015 40.3425 26.0015C41.2476 26.0015 42.1131 25.6623 42.7796 25.046L45.8943 22.1644C46.5531 21.5549 46.6934 20.5578 46.2207 19.8449C45.9291 19.4053 45.4647 19.1174 44.9463 19.0551C44.4283 18.9929 43.911 19.1601 43.5277 19.5144L40.3674 22.4386C40.3561 22.449 40.3399 22.4516 40.3261 22.4455L37.6473 21.24C37.1341 21.009 36.5264 21.1813 36.2021 21.6495C35.7386 22.3187 35.061 22.6376 34.5541 22.4249C34.0272 22.2037 33.7808 21.4434 33.9682 20.6169C34.0913 20.074 33.8148 19.5153 33.3108 19.2885L30.3791 17.9692C29.1163 17.401 27.621 17.6161 26.5698 18.5173L23.2611 21.3532C22.5795 21.9375 22.4008 22.9291 22.8456 23.6598C23.12 24.1105 23.5733 24.416 24.0893 24.4979C24.6049 24.5798 25.1281 24.4319 25.5239 24.0922L28.8817 21.2142C28.8928 21.2047 28.9086 21.2024 28.922 21.2083L30.3172 21.8362C30.4751 21.9073 30.5954 22.0359 30.6557 22.1983C30.716 22.3607 30.709 22.5366 30.6357 22.6936L25.8602 32.9342C25.8519 32.952 25.8327 32.9605 25.8135 32.954L18.7374 30.5382C18.4427 30.4322 18.1181 30.585 18.0122 30.8796L16.5794 34.8619C16.5285 35.0034 16.5358 35.1592 16.5998 35.2953C16.6638 35.4312 16.7793 35.5363 16.9208 35.5871L17.4897 35.7918C17.755 35.8873 18.0264 35.9325 18.2934 35.9325C19.0892 35.9325 19.8459 35.53 20.2874 34.8555L25.1145 36.4626C25.4827 36.5853 25.8648 36.6475 26.2503 36.6475C27.6353 36.6475 28.909 35.8379 29.4983 34.5839L30.6048 32.4224L35.7203 34.5371C35.7313 34.5417 35.7384 34.5495 35.7428 34.5638L37.7068 40.8331V43.0101C37.7068 43.3231 37.9606 43.5769 38.2736 43.5769H42.5058C42.8189 43.5769 43.0726 43.3231 43.0726 43.0101V42.4055C43.0726 41.2671 42.2692 40.3132 41.1997 40.0799L39.0122 33.0233C38.6974 32.0003 37.9501 31.1772 36.9618 30.765L34.5075 29.7425L36.5603 25.3405C36.7081 25.024 37.0875 24.883 37.4062 25.0264ZM29.9064 20.4084L29.3868 20.1745C28.9748 19.989 28.4869 20.0593 28.1438 20.3534L24.7857 23.2316C24.6426 23.3545 24.4536 23.4079 24.2667 23.3782C24.0772 23.3481 23.9163 23.2388 23.8137 23.0703C23.6572 22.8131 23.7383 22.4369 23.9986 22.2138L27.3073 19.3779C28.0266 18.7612 29.0497 18.6141 29.9137 19.003L30.457 19.2474L29.9064 20.4084ZM19.4688 33.9741C19.2361 34.6211 18.5204 34.9581 17.8734 34.7253L17.8378 34.7125L18.8869 31.7969L20.0957 32.2318L19.4688 33.9741ZM39.365 23.2559L39.8608 23.4791C40.2902 23.6723 40.7913 23.5905 41.1371 23.2706L44.2973 20.3466C44.4359 20.2185 44.6227 20.1578 44.811 20.1805C45.0017 20.2035 45.1668 20.3066 45.2759 20.4712C45.442 20.7218 45.3755 21.1 45.1244 21.3322L42.0099 24.2137C41.5536 24.6356 40.9615 24.8679 40.3426 24.8679C39.9936 24.8679 39.654 24.7948 39.3336 24.6506L38.8144 24.417L39.365 23.2559ZM28.4846 34.0765C28.4814 34.0826 28.4784 34.0889 28.4754 34.0952C28.0735 34.9572 27.2 35.5141 26.2501 35.5141C25.9867 35.5141 25.7252 35.4715 25.4727 35.3872L20.733 33.8093L21.1671 32.6029L25.4544 34.0293C26.0194 34.2187 26.6354 33.954 26.8875 33.4135L26.9185 33.347L28.5192 34.0088L28.4846 34.0765ZM41.9391 42.4057V42.4434H38.8405V41.1586H40.6921C41.3797 41.1587 41.9391 41.7181 41.9391 42.4057ZM36.2606 31.701L36.5257 31.8115C37.202 32.0935 37.7134 32.6568 37.9292 33.358L39.9959 40.025H38.6415L36.8253 34.2279C36.7225 33.8939 36.4787 33.6252 36.1547 33.4902L35.6307 33.2736L36.2606 31.701ZM35.533 24.8617L33.4603 29.3063L31.2349 28.3863C30.9456 28.2668 30.6142 28.4043 30.4946 28.6936C30.375 28.9829 30.5126 29.3143 30.8019 29.4339L35.214 31.2651L34.583 32.8406L30.5547 31.1754C30.282 31.0626 29.9682 31.1781 29.8336 31.4409L29.0373 32.9965L27.3979 32.3188L31.6628 23.1728C31.8652 22.7387 31.8849 22.2525 31.718 21.8035C31.5715 21.4093 31.2971 21.0872 30.9366 20.8815L31.4908 19.713L32.8452 20.3224C32.8621 20.3301 32.8658 20.3506 32.8623 20.3664C32.548 21.7525 33.0632 23.0288 34.1152 23.4703C35.1209 23.8923 36.3623 23.409 37.1338 22.2951C37.1447 22.2794 37.1644 22.2661 37.1819 22.2739L38.331 22.791L37.7791 23.9547C36.9183 23.6241 35.9272 24.0163 35.533 24.8617Z" fill="white"/>
<path d="M39.4832 13.4229H36.4602C35.1476 13.4229 34.0796 14.4908 34.0796 15.8035V17.0127C34.0796 18.6587 35.4188 19.998 37.0648 19.998C38.7109 19.998 40.0501 18.6588 40.0501 17.0127V13.9896C40.0501 13.6766 39.7963 13.4229 39.4832 13.4229ZM38.9164 17.0126C38.9164 18.0336 38.0858 18.8642 37.0648 18.8642C36.0439 18.8642 35.2132 18.0336 35.2132 17.0126V15.8035C35.2132 15.1159 35.7726 14.5565 36.4602 14.5565H38.9164V17.0126Z" fill="white"/>
</g>
<defs>
<clipPath id="clip0_705_5688">
<rect width="36" height="36" fill="white" transform="translate(10.5 10.5)"/>
</clipPath>
</defs>
</svg>
