<svg width="160" height="160" viewBox="0 0 160 160" fill="none" xmlns="http://www.w3.org/2000/svg">
<circle cx="80" cy="80" r="76.4444" stroke="#F25700" stroke-opacity="0.3" stroke-width="7.11111"/>
<path d="M46.021 82.5557H40.0002V59.3473L32.8127 61.5765V56.6807L45.3752 52.1807H46.021V82.5557ZM70.521 82.5557H64.5002V59.3473L57.3127 61.5765V56.6807L69.8752 52.1807H70.521V82.5557ZM100.813 70.014C100.813 74.2084 99.9446 77.4168 98.2085 79.639C96.4724 81.8612 93.9307 82.9723 90.5835 82.9723C87.2779 82.9723 84.7502 81.8821 83.0002 79.7015C81.2502 77.5209 80.3543 74.3959 80.3127 70.3265V64.7432C80.3127 60.5071 81.1877 57.2918 82.9377 55.0973C84.7016 52.9029 87.2363 51.8057 90.5418 51.8057C93.8474 51.8057 96.3752 52.8959 98.1252 55.0765C99.8752 57.2432 100.771 60.3612 100.813 64.4307V70.014ZM94.7918 63.889C94.7918 61.3751 94.4446 59.5487 93.7502 58.4098C93.0696 57.2571 92.0002 56.6807 90.5418 56.6807C89.1252 56.6807 88.0766 57.2293 87.396 58.3265C86.7293 59.4098 86.3752 61.1112 86.3335 63.4307V70.8057C86.3335 73.2779 86.6668 75.1182 87.3335 76.3265C88.0141 77.5209 89.0974 78.1182 90.5835 78.1182C92.0557 78.1182 93.1182 77.5418 93.771 76.389C94.4238 75.2362 94.7641 73.4723 94.7918 71.0973V63.889ZM125.313 70.014C125.313 74.2084 124.445 77.4168 122.708 79.639C120.972 81.8612 118.431 82.9723 115.083 82.9723C111.778 82.9723 109.25 81.8821 107.5 79.7015C105.75 77.5209 104.854 74.3959 104.813 70.3265V64.7432C104.813 60.5071 105.688 57.2918 107.438 55.0973C109.202 52.9029 111.736 51.8057 115.042 51.8057C118.347 51.8057 120.875 52.8959 122.625 55.0765C124.375 57.2432 125.271 60.3612 125.313 64.4307V70.014ZM119.292 63.889C119.292 61.3751 118.945 59.5487 118.25 58.4098C117.57 57.2571 116.5 56.6807 115.042 56.6807C113.625 56.6807 112.577 57.2293 111.896 58.3265C111.229 59.4098 110.875 61.1112 110.833 63.4307V70.8057C110.833 73.2779 111.167 75.1182 111.833 76.3265C112.514 77.5209 113.597 78.1182 115.083 78.1182C116.556 78.1182 117.618 77.5418 118.271 76.389C118.924 75.2362 119.264 73.4723 119.292 71.0973V63.889Z" fill="white"/>
<path d="M78.0033 109.729C77.8505 111.348 77.2533 112.611 76.2116 113.521C75.1699 114.424 73.7845 114.875 72.0553 114.875C70.847 114.875 69.781 114.591 68.8574 114.021C67.9408 113.445 67.2324 112.629 66.7324 111.573C66.2324 110.518 65.972 109.292 65.9512 107.896V106.479C65.9512 105.049 66.2046 103.789 66.7116 102.698C67.2185 101.608 67.9442 100.768 68.8887 100.177C69.8401 99.5871 70.9373 99.292 72.1803 99.292C73.8539 99.292 75.2012 99.7469 76.222 100.657C77.2428 101.566 77.8366 102.851 78.0033 104.511H75.3783C75.2533 103.42 74.9338 102.636 74.4199 102.157C73.913 101.67 73.1664 101.427 72.1803 101.427C71.0345 101.427 70.1526 101.848 69.5345 102.688C68.9234 103.521 68.6109 104.747 68.597 106.365V107.709C68.597 109.348 68.8887 110.598 69.472 111.459C70.0623 112.32 70.9234 112.75 72.0553 112.75C73.0901 112.75 73.8678 112.518 74.3887 112.052C74.9095 111.587 75.2394 110.813 75.3783 109.729H78.0033ZM86.8574 114.667C86.7463 114.452 86.6491 114.101 86.5658 113.615C85.7602 114.455 84.7741 114.875 83.6074 114.875C82.4755 114.875 81.5519 114.552 80.8366 113.907C80.1213 113.261 79.7637 112.462 79.7637 111.511C79.7637 110.309 80.2081 109.389 81.097 108.75C81.9928 108.104 83.2706 107.782 84.9303 107.782H86.4824V107.042C86.4824 106.459 86.3192 105.993 85.9928 105.646C85.6664 105.292 85.1699 105.115 84.5033 105.115C83.9269 105.115 83.4546 105.261 83.0866 105.552C82.7185 105.837 82.5345 106.202 82.5345 106.646H80.0033C80.0033 106.028 80.2081 105.452 80.6178 104.917C81.0276 104.375 81.5831 103.952 82.2845 103.646C82.9928 103.341 83.781 103.188 84.6491 103.188C85.9685 103.188 87.0206 103.521 87.8053 104.188C88.5901 104.848 88.9928 105.778 89.0137 106.979V112.063C89.0137 113.077 89.156 113.886 89.4408 114.49V114.667H86.8574ZM84.0762 112.844C84.5762 112.844 85.0449 112.723 85.4824 112.479C85.9269 112.236 86.2602 111.91 86.4824 111.5V109.375H85.1178C84.1803 109.375 83.4755 109.539 83.0033 109.865C82.531 110.191 82.2949 110.653 82.2949 111.25C82.2949 111.736 82.4546 112.125 82.7741 112.417C83.1005 112.702 83.5345 112.844 84.0762 112.844ZM94.3574 114.667H91.8262V98.667H94.3574V114.667Z" fill="#A8A8A8"/>
<circle cx="79.9999" cy="3.55556" r="3.55556" fill="#F25700"/>
</svg>
