<svg width="56" height="56" viewBox="0 0 56 56" fill="none" xmlns="http://www.w3.org/2000/svg">
<circle cx="28" cy="28" r="27.5" fill="#525252"/>
<path d="M42.1269 45.9706H14.8675C13.8486 45.9677 12.8724 45.561 12.1528 44.8395C11.4333 44.118 11.0293 43.1407 11.0293 42.1217V20.5588C11.0293 19.5389 11.4341 18.5608 12.1547 17.8391C12.8754 17.1175 13.853 16.7114 14.8728 16.71H20.6964C20.8368 16.71 20.9714 16.7657 21.0707 16.865C21.17 16.9643 21.2258 17.099 21.2258 17.2394C21.2258 17.3798 21.17 17.5144 21.0707 17.6137C20.9714 17.713 20.8368 17.7688 20.6964 17.7688H14.8728C14.1338 17.7702 13.4255 18.0648 12.9034 18.5878C12.3813 19.1109 12.0881 19.8197 12.0881 20.5588V42.1217C12.0881 42.8598 12.3806 43.5679 12.9015 44.0908C13.4225 44.6137 14.1294 44.9089 14.8675 44.9117H42.1269C42.866 44.9103 43.5743 44.6158 44.0964 44.0927C44.6184 43.5696 44.9117 42.8608 44.9117 42.1217V20.5588C44.9103 19.8193 44.6159 19.1104 44.0929 18.5875C43.57 18.0646 42.8612 17.7702 42.1217 17.7688H36.2981C36.1577 17.7688 36.0231 17.713 35.9238 17.6137C35.8245 17.5144 35.7687 17.3798 35.7687 17.2394C35.7687 17.099 35.8245 16.9643 35.9238 16.865C36.0231 16.7657 36.1577 16.71 36.2981 16.71H42.1217C43.142 16.7114 44.1201 17.1173 44.8416 17.8388C45.5631 18.5603 45.9691 19.5384 45.9705 20.5588V42.1217C45.9691 43.1412 45.5639 44.1185 44.8435 44.8398C44.1232 45.5612 43.1464 45.9678 42.1269 45.9706Z" fill="white"/>
<path d="M40.7562 43.3233H16.2444C15.5634 43.3205 14.9111 43.0484 14.43 42.5663C13.9489 42.0842 13.6782 41.4314 13.6768 40.7504V21.6915C13.6815 21.1045 13.9062 20.5407 14.3064 20.1113C14.7067 19.6819 15.2534 19.4182 15.8386 19.3724C16.4239 19.3265 17.005 19.5017 17.4673 19.8635C17.9296 20.2252 18.2394 20.7472 18.3356 21.3262C18.7158 23.7496 19.9492 25.9575 21.8134 27.552C23.6775 29.1464 26.0499 30.0226 28.5029 30.0226C30.956 30.0226 33.3283 29.1464 35.1925 27.552C37.0567 25.9575 38.29 23.7496 38.6703 21.3262C38.759 20.7402 39.0664 20.2094 39.5306 19.8408C39.9948 19.4721 40.5813 19.2929 41.1723 19.3392C41.7632 19.3855 42.3147 19.6538 42.7159 20.0902C43.117 20.5267 43.338 21.0988 43.3344 21.6915V40.7504C43.333 41.4332 43.0608 42.0877 42.5774 42.57C42.094 43.0524 41.439 43.3233 40.7562 43.3233ZM16.0168 20.4209C15.6765 20.4223 15.3506 20.5585 15.1105 20.7996C14.8704 21.0407 14.7356 21.3671 14.7356 21.7074V40.7662C14.7398 41.1641 14.9004 41.5444 15.1827 41.8248C15.4651 42.1052 15.8465 42.2631 16.2444 42.2645H40.7562C41.1568 42.2631 41.5406 42.1029 41.8234 41.8191C42.1062 41.5353 42.265 41.151 42.265 40.7504V21.6915C42.2576 21.3717 42.1318 21.066 41.9119 20.8336C41.692 20.6012 41.3936 20.4587 41.0747 20.4336C40.7557 20.4086 40.4388 20.5028 40.1853 20.698C39.9319 20.8932 39.7599 21.1756 39.7026 21.4904C39.2791 24.159 37.9175 26.589 35.8626 28.3435C33.8077 30.098 31.1944 31.0619 28.4923 31.0619C25.7903 31.0619 23.177 30.098 21.1221 28.3435C19.0672 26.589 17.7056 24.159 17.2821 21.4904C17.2319 21.1912 17.0772 20.9195 16.8455 20.7236C16.6138 20.5278 16.3201 20.4205 16.0168 20.4209Z" fill="white"/>
<path d="M28.4998 28.4469C26.7774 28.4469 25.0936 27.9362 23.6615 26.9792C22.2293 26.0223 21.1131 24.6622 20.4539 23.0708C19.7948 21.4795 19.6223 19.7285 19.9584 18.0391C20.2944 16.3498 21.1238 14.798 22.3418 13.5801C23.5597 12.3621 25.1115 11.5327 26.8008 11.1966C28.4902 10.8606 30.2412 11.0331 31.8326 11.6922C33.4239 12.3514 34.784 13.4676 35.741 14.8998C36.6979 16.3319 37.2087 18.0157 37.2087 19.7381C37.2059 22.047 36.2874 24.2605 34.6548 25.8931C33.0222 27.5257 30.8087 28.4441 28.4998 28.4469ZM28.4998 12.0881C26.9868 12.0881 25.5078 12.5368 24.2497 13.3774C22.9917 14.218 22.0112 15.4127 21.4322 16.8106C20.8532 18.2085 20.7017 19.7466 20.9968 21.2306C21.292 22.7145 22.0206 24.0776 23.0905 25.1475C24.1603 26.2174 25.5234 26.946 27.0074 27.2411C28.4914 27.5363 30.0295 27.3848 31.4274 26.8058C32.8252 26.2268 34.02 25.2463 34.8606 23.9882C35.7012 22.7302 36.1498 21.2512 36.1498 19.7381C36.1484 17.7096 35.342 15.7647 33.9077 14.3303C32.4733 12.896 30.5283 12.0895 28.4998 12.0881Z" fill="white"/>
<path d="M28.5001 15.264C28.3597 15.264 28.225 15.2082 28.1258 15.1089C28.0265 15.0096 27.9707 14.875 27.9707 14.7346V13.464C27.9707 13.3236 28.0265 13.1889 28.1258 13.0896C28.225 12.9903 28.3597 12.9346 28.5001 12.9346C28.6405 12.9346 28.7752 12.9903 28.8745 13.0896C28.9737 13.1889 29.0295 13.3236 29.0295 13.464V14.7346C29.0295 14.875 28.9737 15.0096 28.8745 15.1089C28.7752 15.2082 28.6405 15.264 28.5001 15.264Z" fill="white"/>
<path d="M26.0065 15.9531C25.9141 15.9526 25.8235 15.9279 25.7436 15.8814C25.6637 15.835 25.5974 15.7685 25.5512 15.6884L24.9053 14.5661C24.8359 14.4452 24.8169 14.3017 24.8526 14.1669C24.8883 14.0321 24.9757 13.9168 25.0959 13.8461C25.156 13.8109 25.2225 13.7878 25.2915 13.7784C25.3605 13.7689 25.4307 13.7731 25.4981 13.7908C25.5655 13.8085 25.6287 13.8394 25.6842 13.8815C25.7396 13.9237 25.7862 13.9765 25.8212 14.0367L26.4671 15.159C26.5021 15.2195 26.5248 15.2862 26.5339 15.3554C26.543 15.4247 26.5383 15.495 26.5201 15.5624C26.5019 15.6299 26.4705 15.693 26.4278 15.7482C26.3851 15.8035 26.3319 15.8497 26.2712 15.8843C26.1905 15.9301 26.0992 15.9538 26.0065 15.9531Z" fill="white"/>
<path d="M24.1853 17.774C24.0925 17.7747 24.0013 17.7509 23.9206 17.7052L22.7982 17.0593C22.7366 17.0243 22.6826 16.9773 22.6395 16.921C22.5963 16.8647 22.565 16.8004 22.5472 16.7317C22.5294 16.6631 22.5256 16.5916 22.536 16.5214C22.5464 16.4513 22.5707 16.384 22.6076 16.3234C22.6784 16.2032 22.7936 16.1158 22.9284 16.0801C23.0633 16.0444 23.2067 16.0634 23.3276 16.1329L24.45 16.7787C24.5711 16.8486 24.6596 16.9635 24.6963 17.0984C24.733 17.2332 24.7149 17.3772 24.6459 17.4987C24.6006 17.5815 24.534 17.6507 24.453 17.6991C24.3721 17.7475 24.2796 17.7733 24.1853 17.774Z" fill="white"/>
<path d="M23.5184 20.2678H22.2267C22.0863 20.2678 21.9516 20.212 21.8523 20.1127C21.753 20.0135 21.6973 19.8788 21.6973 19.7384C21.6973 19.598 21.753 19.4633 21.8523 19.364C21.9516 19.2648 22.0863 19.209 22.2267 19.209H23.5184C23.6589 19.209 23.7935 19.2648 23.8928 19.364C23.9921 19.4633 24.0479 19.598 24.0479 19.7384C24.0479 19.8788 23.9921 20.0135 23.8928 20.1127C23.7935 20.212 23.6589 20.2678 23.5184 20.2678Z" fill="white"/>
<path d="M23.0631 23.4025C22.9475 23.4013 22.8356 23.3623 22.7442 23.2916C22.6529 23.2208 22.5872 23.1221 22.5572 23.0105C22.5272 22.8989 22.5346 22.7806 22.5781 22.6736C22.6216 22.5665 22.699 22.4767 22.7984 22.4178L23.9207 21.7719C23.9808 21.7366 24.0473 21.7136 24.1163 21.7041C24.1853 21.6947 24.2555 21.6989 24.3229 21.7166C24.3903 21.7343 24.4535 21.7651 24.509 21.8073C24.5644 21.8495 24.611 21.9022 24.646 21.9625C24.7134 22.0835 24.7306 22.2262 24.694 22.3598C24.6573 22.4934 24.5698 22.6074 24.4501 22.6772L23.3278 23.323C23.2481 23.3725 23.1568 23.3999 23.0631 23.4025Z" fill="white"/>
<path d="M33.932 23.401C33.8393 23.4016 33.748 23.3779 33.6673 23.3322L32.545 22.6757C32.4848 22.6407 32.432 22.5941 32.3898 22.5387C32.3477 22.4832 32.3168 22.42 32.2991 22.3526C32.2814 22.2852 32.2772 22.215 32.2867 22.146C32.2961 22.077 32.3192 22.0105 32.3544 21.9504C32.4251 21.8302 32.5404 21.7428 32.6752 21.7071C32.81 21.6714 32.9535 21.6903 33.0744 21.7598L34.1967 22.4057C34.3178 22.4755 34.4064 22.5904 34.4431 22.7253C34.4798 22.8602 34.4616 23.0041 34.3926 23.1257C34.3473 23.2085 34.2808 23.2776 34.1998 23.326C34.1188 23.3744 34.0264 23.4003 33.932 23.401Z" fill="white"/>
<path d="M34.7737 20.2678H33.4767C33.3363 20.2678 33.2016 20.212 33.1023 20.1127C33.003 20.0135 32.9473 19.8788 32.9473 19.7384C32.9473 19.598 33.003 19.4633 33.1023 19.364C33.2016 19.2648 33.3363 19.209 33.4767 19.209H34.7737C34.9141 19.209 35.0488 19.2648 35.1481 19.364C35.2474 19.4633 35.3031 19.598 35.3031 19.7384C35.3031 19.8788 35.2474 20.0135 35.1481 20.1127C35.0488 20.212 34.9141 20.2678 34.7737 20.2678Z" fill="white"/>
<path d="M32.8092 17.7736C32.6936 17.7724 32.5816 17.7334 32.4903 17.6627C32.399 17.5919 32.3333 17.4932 32.3033 17.3816C32.2733 17.27 32.2806 17.1517 32.3242 17.0447C32.3677 16.9376 32.4451 16.8478 32.5445 16.7888L33.6668 16.143C33.7269 16.1077 33.7934 16.0847 33.8624 16.0752C33.9314 16.0658 34.0016 16.07 34.069 16.0877C34.1364 16.1054 34.1996 16.1362 34.2551 16.1784C34.3105 16.2206 34.3571 16.2733 34.3921 16.3335C34.4271 16.394 34.4498 16.4607 34.4589 16.53C34.468 16.5992 34.4633 16.6695 34.4451 16.737C34.4269 16.8044 34.3955 16.8675 34.3528 16.9228C34.3101 16.978 34.2569 17.0243 34.1962 17.0588L33.0739 17.7047C32.9932 17.7505 32.9019 17.7742 32.8092 17.7736Z" fill="white"/>
<path d="M30.9881 15.9529C30.8949 15.9533 30.8034 15.9291 30.7226 15.8827C30.6418 15.8364 30.5747 15.7696 30.528 15.6891C30.4813 15.6085 30.4566 15.5171 30.4565 15.424C30.4565 15.3309 30.4809 15.2394 30.5275 15.1588L31.1786 14.0364C31.2519 13.9212 31.3668 13.8387 31.4995 13.8062C31.6321 13.7737 31.7721 13.7937 31.8904 13.8621C32.0086 13.9304 32.0958 14.0418 32.1339 14.1729C32.1719 14.3041 32.1578 14.4448 32.0945 14.5658L31.4486 15.6882C31.402 15.769 31.3348 15.836 31.254 15.8825C31.1731 15.929 31.0813 15.9533 30.9881 15.9529Z" fill="white"/>
<path d="M28.4997 21.2367C28.2034 21.2367 27.9137 21.1488 27.6673 20.9842C27.4209 20.8196 27.2289 20.5856 27.1155 20.3118C27.0021 20.0381 26.9724 19.7368 27.0303 19.4462C27.0881 19.1556 27.2308 18.8886 27.4403 18.6791C27.6498 18.4695 27.9168 18.3268 28.2074 18.269C28.498 18.2112 28.7993 18.2409 29.0731 18.3543C29.3468 18.4677 29.5808 18.6597 29.7454 18.9061C29.9101 19.1525 29.9979 19.4421 29.9979 19.7385C29.9979 20.1358 29.8401 20.5169 29.5591 20.7979C29.2781 21.0789 28.8971 21.2367 28.4997 21.2367ZM28.4997 19.2991C28.3832 19.2991 28.2714 19.3454 28.189 19.4278C28.1066 19.5102 28.0603 19.6219 28.0603 19.7385C28.0603 19.855 28.1066 19.9668 28.189 20.0492C28.2714 20.1316 28.3832 20.1779 28.4997 20.1779C28.6162 20.1779 28.728 20.1316 28.8104 20.0492C28.8928 19.9668 28.9391 19.855 28.9391 19.7385C28.9391 19.6219 28.8928 19.5102 28.8104 19.4278C28.728 19.3454 28.6162 19.2991 28.4997 19.2991Z" fill="white"/>
<path d="M29.183 19.5799C29.0789 19.5794 28.9773 19.5483 28.8908 19.4905C28.8043 19.4326 28.7368 19.3505 28.6967 19.2545C28.6565 19.1585 28.6456 19.0527 28.6653 18.9505C28.6849 18.8483 28.7343 18.7542 28.8071 18.6799L30.5648 16.9222C30.614 16.8726 30.6725 16.8332 30.737 16.8063C30.8015 16.7795 30.8707 16.7656 30.9406 16.7656C31.0105 16.7656 31.0797 16.7795 31.1442 16.8063C31.2087 16.8332 31.2673 16.8726 31.3165 16.9222C31.4151 17.0214 31.4705 17.1556 31.4705 17.2955C31.4705 17.4353 31.4151 17.5695 31.3165 17.6687L29.5589 19.4263C29.5094 19.4754 29.4507 19.5142 29.3862 19.5406C29.3217 19.5669 29.2527 19.5803 29.183 19.5799Z" fill="white"/>
</svg>
