<svg width="45" height="45" viewBox="0 0 45 45" fill="none" xmlns="http://www.w3.org/2000/svg">
<circle cx="22.4608" cy="22.4608" r="22.4608" fill="#A8A8A8"/>
<g clip-path="url(#clip0_652_18882)">
<path d="M23.8323 22.4775L31.6199 14.6896C32.1268 14.1831 32.1268 13.364 31.6199 12.8575C31.1134 12.3509 30.2943 12.3509 29.7878 12.8575L21.9999 20.6453L14.2123 12.8575C13.7055 12.3509 12.8867 12.3509 12.3801 12.8575C11.8733 13.364 11.8733 14.1831 12.3801 14.6896L20.1677 22.4775L12.3801 30.2653C11.8733 30.7719 11.8733 31.5909 12.3801 32.0975C12.6326 32.3502 12.9645 32.4771 13.2962 32.4771C13.6279 32.4771 13.9596 32.3502 14.2123 32.0975L21.9999 24.3097L29.7878 32.0975C30.0405 32.3502 30.3722 32.4771 30.7039 32.4771C31.0356 32.4771 31.3673 32.3502 31.6199 32.0975C32.1268 31.5909 32.1268 30.7719 31.6199 30.2653L23.8323 22.4775Z" fill="white"/>
</g>
<defs>
<clipPath id="clip0_652_18882">
<rect width="20" height="20" fill="white" transform="translate(12 12.4609)"/>
</clipPath>
</defs>
</svg>
