<svg width="16" height="16" viewBox="0 0 16 16" fill="none" xmlns="http://www.w3.org/2000/svg">
<g clip-path="url(#clip0_652_18871)">
<path d="M15.1226 2.30086C14.56 1.73784 13.7966 1.42162 13.0006 1.42188C12.205 1.42001 11.4416 1.73613 10.8802 2.29989L7.00667 6.1735C6.24027 6.9411 5.94727 8.0623 6.2402 9.10672C6.32597 9.41077 6.64198 9.58774 6.94604 9.50197C7.25009 9.4162 7.42705 9.10018 7.34129 8.79613C7.16071 8.15025 7.34189 7.45718 7.81547 6.98233L11.689 3.1093C12.4132 2.38492 13.5876 2.38479 14.3119 3.10903C15.0363 3.83323 15.0364 5.00755 14.3122 5.73193L10.4387 9.6055C10.1848 9.85968 9.86243 10.0344 9.51089 10.1083C9.20161 10.1727 9.00309 10.4756 9.06748 10.7849C9.12285 11.0508 9.35762 11.2411 9.62927 11.2403C9.66925 11.2403 9.70913 11.2361 9.74825 11.2277C10.3164 11.1079 10.8373 10.8253 11.2475 10.4143L15.1211 6.54133C16.2924 5.37076 16.2931 3.47227 15.1226 2.30086Z" fill="white"/>
<path d="M9.74309 6.90902C9.65732 6.60497 9.34131 6.428 9.03725 6.51377C8.7332 6.59954 8.55624 6.91555 8.642 7.21961C8.82258 7.86549 8.6414 8.55856 8.16782 9.03341L4.29422 12.907C3.57001 13.6314 2.39569 13.6315 1.67132 12.9073C0.946943 12.1831 0.946809 11.0088 1.67102 10.2844L5.54462 6.41021C5.79806 6.15609 6.12008 5.98137 6.47126 5.9074C6.78104 5.84543 6.98194 5.5441 6.91997 5.23434C6.858 4.92459 6.55666 4.72367 6.24691 4.78564C6.24312 4.78641 6.23937 4.78718 6.23561 4.78802C5.66739 4.90797 5.14629 5.19057 4.73582 5.60141L0.862216 9.47501C-0.299973 10.6551 -0.285427 12.5539 0.894692 13.7161C2.06194 14.8656 3.9356 14.8657 5.10302 13.7164L8.97659 9.84221C9.74302 9.0746 10.036 7.9534 9.74309 6.90902Z" fill="white"/>
</g>
<defs>
<clipPath id="clip0_652_18871">
<rect width="16" height="16" fill="white"/>
</clipPath>
</defs>
</svg>
