<svg width="24" height="24" viewBox="0 0 24 24" fill="none" xmlns="http://www.w3.org/2000/svg">
<g clip-path="url(#clip0_683_19633)">
<path d="M19 2H5C3.89 2 3 2.9 3 4V18C3 19.1 3.9 20 5 20H9L11.29 22.29C11.68 22.68 12.31 22.68 12.7 22.29L15 20H19C20.1 20 21 19.1 21 18V4C21 2.9 20.1 2 19 2ZM12 5.3C13.49 5.3 14.7 6.51 14.7 8C14.7 9.49 13.49 10.7 12 10.7C10.51 10.7 9.3 9.49 9.3 8C9.3 6.51 10.51 5.3 12 5.3ZM18 16H6V15.1C6 13.1 10 12 12 12C14 12 18 13.1 18 15.1V16Z" fill="white"/>
</g>
<defs>
<clipPath id="clip0_683_19633">
<rect width="24" height="24" fill="white"/>
</clipPath>
</defs>
</svg>
